<?xml version="1.0" encoding="UTF-8"?>
<svg width="422px" height="488px" viewBox="0 0 422 488" version="1.1" xmlns="http://www.w3.org/2000/svg" xmlns:xlink="http://www.w3.org/1999/xlink">
    <title>holo-logo-white.svg</title>
    <g id="Page-1" stroke="none" stroke-width="1" fill="none" fill-rule="evenodd">
        <g id="holo-logo-white.svg" fill="#FFFFFF" fill-rule="nonzero">
            <g id="Group" transform="translate(211.000000, 243.950000) scale(-1, 1) rotate(-180.000000) translate(-211.000000, -243.950000) translate(0.000000, 0.000000)">
                <path d="M105,427 L0,366.1 L0,243.9 L0,121.7 L105.6,60.8 L211.2,0 L316.6,61 L422,121.9 L422,244.1 L422,366.4 L316.5,427.2 C258.5,460.6 210.8,487.9 210.5,487.9 C210.2,487.8 162.8,460.4 105,427 Z M168.5,327.5 L168.5,283 L211,283 L253.5,283 L253.5,327.5 L253.5,372 L293,372 L332.5,372 L332.5,245.5 L332.5,119 L293,119 L253.5,119 L253.5,170 L253.5,221 L211,221 L168.5,221 L168.5,170 L168.5,119 L129,119 L89.5,119 L89.5,245.5 L89.5,372 L129,372 L168.5,372 L168.5,327.5 Z" id="Shape"></path>
            </g>
        </g>
    </g>
</svg>