<?xml version="1.0" encoding="UTF-8"?><svg id="Layer_1" xmlns="http://www.w3.org/2000/svg" viewBox="0 0 68.24 27.65"><defs><style>.cls-1{fill:#fff;}</style></defs><path class="cls-1" d="M0,.22H3.98V4.73h4.35V.22h4V13.1h-4V7.89H3.98v5.21H0V.22Z"/><path class="cls-1" d="M18.86,6.67c0-2.1,.59-3.74,1.76-4.91s2.8-1.76,4.9-1.76,3.8,.58,4.96,1.73,1.74,2.76,1.74,4.84c0,1.51-.25,2.74-.76,3.7s-1.24,1.71-2.2,2.25-2.15,.8-3.58,.8-2.66-.23-3.61-.69-1.72-1.2-2.32-2.2-.89-2.26-.89-3.76Zm3.98,.02c0,1.3,.24,2.24,.73,2.8s1.14,.85,1.97,.85,1.52-.28,1.99-.83,.7-1.56,.7-3c0-1.21-.24-2.1-.73-2.66s-1.15-.84-1.99-.84-1.45,.28-1.93,.85-.73,1.51-.73,2.82Z"/><path class="cls-1" d="M38.74,.22h3.98V9.93h6.21v3.17h-10.2V.22Z"/><path class="cls-1" d="M54.62,6.67c0-2.1,.59-3.74,1.76-4.91s2.8-1.76,4.9-1.76,3.8,.58,4.96,1.73,1.74,2.76,1.74,4.84c0,1.51-.25,2.74-.76,3.7s-1.24,1.71-2.2,2.25-2.15,.8-3.58,.8-2.66-.23-3.61-.69-1.72-1.2-2.32-2.2-.89-2.26-.89-3.76Zm3.98,.02c0,1.3,.24,2.24,.73,2.8s1.14,.85,1.97,.85,1.52-.28,1.99-.83,.7-1.56,.7-3c0-1.21-.24-2.1-.73-2.66s-1.15-.84-1.99-.84-1.45,.28-1.93,.85-.73,1.51-.73,2.82Z"/><path class="cls-1" d="M.05,27.5v-8.59H5.85v1.01H1.19v2.66H5.22v1.01H1.19v3.9H.05Z"/><path class="cls-1" d="M6.98,23.32c0-1.43,.38-2.54,1.15-3.35s1.75-1.21,2.96-1.21c.79,0,1.51,.19,2.14,.57s1.12,.91,1.46,1.58,.5,1.45,.5,2.31-.18,1.65-.53,2.34-.85,1.21-1.49,1.56-1.34,.53-2.09,.53c-.81,0-1.53-.2-2.17-.59s-1.12-.92-1.45-1.6-.49-1.39-.49-2.14Zm1.17,.02c0,1.04,.28,1.85,.83,2.45s1.25,.89,2.09,.89,1.56-.3,2.11-.9,.83-1.46,.83-2.56c0-.7-.12-1.31-.35-1.83s-.58-.93-1.04-1.21-.97-.43-1.53-.43c-.8,0-1.5,.28-2.08,.83s-.87,1.48-.87,2.77Z"/><path class="cls-1" d="M16.31,23.32c0-1.43,.38-2.54,1.15-3.35s1.75-1.21,2.96-1.21c.79,0,1.51,.19,2.14,.57s1.12,.91,1.46,1.58,.5,1.45,.5,2.31-.18,1.65-.53,2.34-.85,1.21-1.49,1.56-1.34,.53-2.09,.53c-.81,0-1.53-.2-2.17-.59s-1.12-.92-1.45-1.6-.49-1.39-.49-2.14Zm1.17,.02c0,1.04,.28,1.85,.83,2.45s1.25,.89,2.09,.89,1.56-.3,2.11-.9,.83-1.46,.83-2.56c0-.7-.12-1.31-.35-1.83s-.58-.93-1.04-1.21-.97-.43-1.53-.43c-.8,0-1.5,.28-2.08,.83s-.87,1.48-.87,2.77Z"/><path class="cls-1" d="M28.18,27.5v-7.58h-2.83v-1.01h6.81v1.01h-2.84v7.58h-1.14Z"/><path class="cls-1" d="M34.82,27.5l-2.28-8.59h1.17l1.31,5.63c.14,.59,.26,1.18,.36,1.76,.22-.92,.35-1.45,.39-1.59l1.63-5.8h1.37l1.23,4.35c.31,1.08,.53,2.09,.67,3.04,.11-.54,.25-1.17,.43-1.87l1.35-5.52h1.14l-2.36,8.59h-1.1l-1.81-6.54c-.15-.55-.24-.88-.27-1.01-.09,.39-.17,.73-.25,1.01l-1.82,6.54h-1.16Z"/><path class="cls-1" d="M44.67,27.5v-8.59h6.21v1.01h-5.07v2.63h4.75v1.01h-4.75v2.92h5.27v1.01h-6.41Z"/><path class="cls-1" d="M51.71,27.5l3.3-8.59h1.22l3.52,8.59h-1.29l-1-2.6h-3.59l-.94,2.6h-1.21Zm2.48-3.53h2.91l-.9-2.38c-.27-.72-.48-1.32-.61-1.78-.11,.55-.26,1.1-.46,1.64l-.94,2.52Z"/><path class="cls-1" d="M60.67,27.5v-8.59h3.81c.77,0,1.35,.08,1.75,.23s.72,.43,.96,.82,.36,.82,.36,1.29c0,.61-.2,1.12-.59,1.54s-1,.68-1.83,.8c.3,.14,.53,.29,.69,.43,.33,.3,.65,.69,.94,1.14l1.49,2.34h-1.43l-1.14-1.79c-.33-.52-.61-.91-.82-1.18s-.41-.46-.58-.57-.34-.19-.52-.23c-.13-.03-.34-.04-.63-.04h-1.32v3.81h-1.14Zm1.14-4.8h2.44c.52,0,.93-.05,1.22-.16s.52-.28,.67-.52,.23-.49,.23-.77c0-.41-.15-.74-.44-1s-.76-.39-1.4-.39h-2.72v2.84Z"/></svg>