<?xml version="1.0" encoding="UTF-8"?>
<svg width="216px" height="62px" viewBox="0 0 216 62" version="1.1" xmlns="http://www.w3.org/2000/svg" xmlns:xlink="http://www.w3.org/1999/xlink">
    <title>logo</title>
    <g id="Page-1" stroke="none" stroke-width="1" fill="none" fill-rule="evenodd">
        <g id="logo" transform="translate(0.000000, 0.000000)" fill="#FFFFFF" fill-rule="nonzero">
            <path d="M102.1,18 C103.5,18.3 103.8,18.6 104.7,20.8 C106.7,25.6 108.5,30.3 110.4,35.2 L111.6,35.2 C113.9,29.1 116,24.1 117.4,21 C118.5,18.6 118.9,18.1 120,18.1 C121.1,18.1 121.6,18.8 121.6,21.1 L121.6,30.3 C121.6,33.1 121.3,33.3 118.7,33.6 L118.7,34.7 L128.1,34.7 L128.1,33.6 C125.5,33.4 125.2,33.1 125.2,30.3 L125.2,16.2 C122.6,16.7 120.4,16.8 113.7,16.8 L113.7,18 C115.3,18.2 115.9,18.4 115.9,19.2 C115.9,19.7 115.7,20.1 115.6,20.5 C114.8,23.2 113.4,26.9 112.1,30 C111,27.2 109.4,23 108.4,20.2 C108.2,19.8 108.1,19.4 108.1,19 C108.1,18.5 108.6,18.3 110.1,18.1 L110.1,16.9 L102.2,16.9 L102.1,18 Z M204.6,22.9 C205.2,19.6 206.9,17.9 208.7,17.9 C210.8,17.9 212.1,19.9 212.1,22 C212.1,22.6 211.9,22.8 211.1,22.8 C208.8,22.9 206.7,22.9 204.6,22.9 M208.8,35.2 C210.2,35.2 213,34.5 215.6,31.2 L214.9,30.3 C213.7,31.5 212,32.3 210.3,32.3 C207.4,32.3 204.3,30 204.3,24.7 C209,24.5 214,24.2 214.8,24 C215.6,23.8 215.8,23.5 215.8,22.6 C215.8,19.2 213,16.4 209.6,16.3 C207.3,16.4 205.1,17.5 203.6,19.3 C201.8,21.2 200.8,23.8 200.9,26.4 C200.8,31.1 203.8,35.2 208.8,35.2 M193.2,35.2 C195.6,35.2 198.3,33.4 200,31.2 L199.3,30.3 C198.1,31.6 196.4,32.3 194.6,32.3 C192.4,32.3 188.5,30.4 188.5,24.8 C188.5,20.5 190.8,18.4 193.3,18.4 C194.8,18.4 196.3,19 197.4,20.1 C197.7,20.4 197.9,20.6 198.2,20.6 C199,20.3 199.6,19.6 199.6,18.8 C199.6,18.3 199.3,17.8 198.9,17.5 C197.8,16.8 196.6,16.4 195.3,16.4 C193,16.5 190.8,17.4 189,18.8 C186.4,20.6 184.9,23.5 184.9,26.7 C184.9,31 187.9,35.2 193.2,35.2 M164.2,34.7 L173.3,34.7 L173.3,33.6 C171,33.4 170.7,33.2 170.7,30.5 L170.7,20.8 C171.8,19.7 173.3,19 174.9,18.9 C177.4,18.9 178.5,20.6 178.5,23.4 L178.5,30.2 C178.5,33 178.2,33.3 175.9,33.6 L175.9,34.7 L184.6,34.7 L184.6,33.6 C182.3,33.3 182,33.2 182,30.5 L182,22.6 C182,18.7 180,16.4 176.7,16.4 C175.5,16.4 174.3,16.9 173.3,17.6 C172.3,18.3 171.4,18.9 170.6,19.5 L170.6,16.3 C168.6,17.1 166.6,17.6 164.5,18 L164.5,19 C166.7,19.4 167,19.6 167,22.1 L167,30.5 C167,33.2 166.8,33.4 164.1,33.7 L164.2,34.7 Z M152.1,22.9 C152.6,19.6 154.4,17.9 156.2,17.9 C158.3,17.9 159.6,19.9 159.6,22 C159.6,22.6 159.4,22.8 158.7,22.8 C156.4,22.9 154.2,22.9 152.1,22.9 M156.4,35.1 C157.8,35.1 160.6,34.4 163.2,31.1 L162.6,30.2 C161.4,31.4 159.7,32.2 158,32.2 C155.1,32.2 152,29.9 152,24.6 C156.7,24.4 161.7,24.1 162.5,23.9 C163.3,23.7 163.5,23.4 163.5,22.5 C163.4,19.1 160.7,16.3 157.3,16.2 C155,16.3 152.8,17.4 151.3,19.2 C149.5,21.1 148.5,23.7 148.5,26.4 C148.3,31.1 151.3,35.2 156.4,35.1 M123.3,12.5 C124.5,12.4 125.5,11.3 125.4,10.1 C125.3,9 124.4,8.1 123.3,8 C122.1,8 121,9 121.1,10.3 L121.1,10.3 C121.1,11.5 122.1,12.5 123.3,12.5 C123.3,12.5 123.3,12.5 123.3,12.5 M137.9,32.5 C135.4,32.5 132.4,30.2 132.4,25.3 C132.4,19.3 135.8,17.8 137.5,17.8 C139.1,17.8 140.6,18.6 141.4,19.9 L141.4,31.2 C140.4,32 139.2,32.5 137.9,32.5 Z M93.9,33.7 C90.7,33.7 88.6,29.9 88.6,24.7 C88.6,20 90.7,17.6 93.1,17.6 C96.5,17.6 98.3,21.3 98.3,26.3 C98.3,32.1 96.3,33.7 93.9,33.7 L93.9,33.7 Z M93.5,35.1 C97.7,35.1 102.4,32 102.4,25.4 C102.5,20.5 98.7,16.4 93.8,16.3 C93.7,16.3 93.6,16.3 93.5,16.3 C88.3,16.5 84.3,20.8 84.4,26 C84.4,26 84.4,26.1 84.4,26.1 C84.3,31 88.2,35 93.1,35.1 C93.3,35.1 93.4,35.1 93.5,35.1 M71.3,34.6 L81.1,34.6 L81.1,33.5 C78,33.3 77.8,33 77.8,30.4 L77.8,22.9 C78.7,20.7 79.9,19.7 80.8,19.7 C81.5,19.7 82.2,20 82.6,20.5 C82.7,20.7 83,20.8 83.2,20.7 C83.4,20.7 83.6,20.7 83.7,20.6 C84.6,20.2 85.1,19.4 85.1,18.4 C85,17.1 83.9,16.2 82.6,16.3 C80.7,16.3 79,18.5 77.8,20.6 L77.7,20.6 L77.7,16.2 C75.7,17 73.7,17.5 71.6,17.8 L71.6,18.8 C73.9,19.2 74.1,19.3 74.1,21.8 L74.1,30.3 C74.1,32.9 73.8,33.2 71.2,33.4 L71.3,34.6 Z M60.7,22.3 C59.7,22.3 58.8,22.2 57.9,21.8 L57.9,11.8 C57.9,10.7 58,10.3 58.3,10 C58.9,9.6 59.7,9.4 60.4,9.5 C64.1,9.5 66.4,11.8 66.4,15.8 C66.4,19.9 64.2,22.3 60.7,22.3 M50.4,34.6 L62,34.6 L62,33.5 C58.2,33.3 57.9,33 57.9,29.6 L57.9,23.3 L60.9,24.1 C61.5,24.2 62.1,24.2 62.7,24.1 C67.7,23.4 70.7,20.3 70.7,15.7 C70.8,13.4 69.8,11.3 68,9.9 C66.5,8.7 64.3,8.2 61.1,8.2 L50.8,8.2 L50.8,9.3 C53.8,9.5 54.1,9.8 54.1,13.4 L54.1,29.6 C54.1,33 53.7,33.3 50.4,33.5 L50.4,34.6 Z M136,35.1 C137.1,35 138.1,34.6 139,34 L141.5,32.5 L141.5,35.1 C143.7,34.4 145.9,33.9 148.2,33.6 L148.2,32.6 L146.9,32.5 C145.4,32.4 145.1,32.1 145.1,30 L145.1,5.7 C142.9,6.3 140.7,6.8 138.4,7.1 L138.4,8.1 C141.2,8.3 141.4,8.5 141.4,11.1 L141.4,16.7 C140.6,16.4 139.7,16.3 138.9,16.3 C133.2,16.3 128.3,20.8 128.3,26.4 C128.3,32.2 132.7,35.1 136,35.1 Z" id="Shape"></path>
            <path d="M24.1,40.6 C22.5,39 21.8,37.4 21.8,33.8 L21.8,24.2 C21.6,23 22.4,21.9 23.6,21.7 C23.8,21.7 24,21.7 24.2,21.7 L33.8,21.7 C37.4,21.7 39,22.4 40.6,24 L40.6,16.6 C39,18.4 37.4,19 33.8,19 L24.2,19 C23,19.2 21.9,18.3 21.7,17.1 C21.7,16.9 21.7,16.7 21.7,16.5 L21.7,7 C21.7,3.4 22.4,1.9 24,0.2 L16.7,0.2 C18.4,1.8 19,3.4 19,7 L19,16.6 C19.2,17.8 18.3,18.9 17.2,19.1 C17,19.1 16.8,19.1 16.6,19.1 L7,19.1 C3.4,19.1 1.9,18.4 0.2,16.8 L0.2,24.2 C1.8,22.6 3.4,21.9 7,21.9 L16.6,21.9 C17.8,21.7 18.9,22.6 19.1,23.7 C19.1,23.9 19.1,24.1 19.1,24.3 L19.1,33.9 C19,37.4 18.4,39 16.7,40.6 L24.1,40.6 Z" id="Path"></path>
            <path d="M23.6,33.9 L23.6,25.3 C23.6,23.9 24,23.5 25.4,23.5 L33.9,23.5 C37.5,23.5 40.1,25.5 40.8,28.7 L28.8,28.7 L28.8,40.7 C25.6,40.1 23.6,37.5 23.6,33.9 M6.9,17.2 L15.4,17.2 C16.8,17.2 17.2,16.8 17.2,15.4 L17.2,6.9 C17.2,3.4 15.2,0.7 12,0 L12,12 L0,12 C0.7,15.2 3.3,17.2 6.9,17.2 M40.8,12 L28.8,12 L28.8,0 C25.6,0.7 23.6,3.3 23.6,6.9 L23.6,15.4 C23.6,16.8 24,17.2 25.4,17.2 L33.9,17.2 C37.5,17.2 40.1,15.2 40.8,12 L40.8,12 Z M12,40.8 C15.2,40.1 17.2,37.5 17.2,33.9 L17.2,25.4 C17.2,24 16.8,23.6 15.4,23.6 L6.9,23.6 C3.4,23.6 0.7,25.6 0,28.8 L12,28.8 L12,40.8 Z" id="Shape"></path>
            <path d="M50.6,61.2 L50.6,60.2 C51,60.2 51.3,60.1 51.6,59.9 C51.8,59.7 52,59.4 52,59.1 C52.1,58.7 52.1,58.2 52.1,57.8 L52.1,48.7 C52.1,48.4 52.1,48.1 52.1,47.8 C52.1,47.5 52.1,47.2 52.1,47 L51.3,47 L50.5,47 L50.5,45.9 L55.9,45.9 L55.9,46.9 C55.5,46.9 55.2,47 54.9,47.2 C54.7,47.4 54.5,47.7 54.5,48 C54.5,48.4 54.5,48.9 54.5,49.3 L54.5,52.9 L61.8,52.9 L61.8,48.7 C61.8,48.4 61.8,48.1 61.8,47.8 C61.8,47.5 61.8,47.2 61.8,47 L61,47 L60.2,47 L60.2,45.9 L65.6,45.9 L65.6,46.9 C65.2,46.9 64.9,47 64.6,47.2 C64.4,47.4 64.2,47.7 64.2,48 C64.1,48.4 64.1,48.9 64.1,49.3 L64.1,58.3 C64.1,58.7 64.1,59.1 64.1,59.4 C64.1,59.7 64.1,59.9 64.1,60.2 C64.4,60.2 64.6,60.2 64.9,60.1 C65.2,60.1 65.5,60.1 65.7,60.1 L65.7,61.3 L60.2,61.3 L60.2,60.3 C60.6,60.3 60.9,60.2 61.2,60 C61.4,59.8 61.6,59.5 61.6,59.2 C61.7,58.8 61.7,58.3 61.7,57.9 L61.7,54.1 L54.5,54 L54.5,58.2 C54.5,58.6 54.5,59 54.5,59.3 C54.5,59.6 54.5,59.8 54.4,60.1 C54.6,60.1 54.9,60.1 55.2,60 C55.5,59.9 55.8,60 56,60 L56,61.2 L50.6,61.2 Z" id="Path"></path>
            <path d="M71.9,61.5 C70.9,61.5 70,61.3 69.1,60.8 C68.3,60.3 67.6,59.6 67.2,58.8 C66.7,57.9 66.4,56.8 66.5,55.7 C66.5,54.7 66.7,53.7 67.2,52.8 C67.7,51.9 68.4,51.2 69.2,50.6 C70.1,50 71.1,49.8 72.1,49.8 C72.7,49.8 73.3,49.9 73.9,50.1 C74.4,50.3 75,50.6 75.4,51 C75.8,51.4 76.2,52 76.4,52.6 C76.7,53.3 76.8,54.1 76.8,54.9 L69.1,55 C69.1,55.9 69.2,56.8 69.5,57.7 C69.7,58.4 70,59 70.6,59.5 C71.2,59.9 71.9,60.2 72.6,60.1 C73,60.1 73.5,60 73.9,59.9 C74.4,59.8 74.8,59.6 75.2,59.3 C75.6,59 75.9,58.7 76.2,58.4 L76.9,59 C76.5,59.6 76,60.1 75.4,60.5 C74.9,60.9 74.3,61.1 73.6,61.3 C73,61.4 72.5,61.5 71.9,61.5 Z M69.2,53.8 L74.3,53.8 C74.3,53.3 74.2,52.8 74.1,52.3 C74,51.9 73.7,51.5 73.4,51.2 C73,50.9 72.6,50.8 72.2,50.8 C71.5,50.8 70.8,51 70.3,51.5 C69.6,52.2 69.3,53 69.2,53.8 L69.2,53.8 Z" id="Shape"></path>
            <path d="M85.2,61.2 C85.2,61 85.1,60.8 85.1,60.6 C85.1,60.4 85.1,60.3 85,60 C84.5,60.5 84,60.9 83.4,61.1 C82.8,61.3 82.2,61.5 81.6,61.5 C80.7,61.6 79.9,61.3 79.2,60.7 C78.7,60.2 78.4,59.5 78.4,58.7 C78.4,58.1 78.6,57.4 79,56.9 C79.4,56.4 80,56 80.6,55.7 C81.3,55.4 82,55.1 82.7,55 C83.4,54.9 84.2,54.8 84.9,54.8 L84.9,53.6 C84.9,53.2 84.9,52.7 84.8,52.3 C84.7,51.9 84.5,51.6 84.3,51.3 C83.9,51 83.5,50.9 83,50.9 C82.6,50.9 82.2,51 81.9,51.1 C81.5,51.2 81.2,51.5 81,51.9 C81.1,52 81.2,52.1 81.2,52.3 C81.2,52.4 81.3,52.6 81.3,52.7 C81.3,53 81.2,53.2 81,53.4 C80.8,53.7 80.4,53.8 80.1,53.8 C79.8,53.8 79.5,53.7 79.3,53.4 C79.1,53.2 79,52.9 79,52.6 C79,52.1 79.2,51.6 79.6,51.2 C80,50.7 80.6,50.4 81.2,50.2 C81.9,50 82.7,49.8 83.5,49.9 C84.5,49.8 85.6,50.2 86.3,50.9 C87,51.8 87.3,52.9 87.2,54 L87.2,55.6 C87.2,56.1 87.2,56.6 87.2,57 C87.2,57.4 87.2,58 87.2,58.5 C87.2,58.7 87.2,59 87.2,59.3 C87.2,59.6 87.2,59.9 87.1,60.2 L88,60.2 L88.8,60.2 L88.8,61.4 L85.2,61.2 Z M85.1,55.9 C84.6,55.9 84.1,56 83.7,56.1 C83.2,56.2 82.8,56.3 82.4,56.6 C82,56.8 81.7,57.1 81.4,57.4 C81.2,57.7 81,58.2 81,58.6 C81,59 81.2,59.4 81.5,59.7 C81.8,59.9 82.2,60.1 82.6,60 C83.1,60 83.5,59.9 84,59.7 C84.4,59.5 84.8,59.2 85.2,58.9 C85.2,58.7 85.2,58.6 85.2,58.4 L85.2,57.9 C85.2,57.8 85.2,57.5 85.2,57.2 C85.2,56.9 85,56.3 85.1,55.9 Z" id="Shape"></path>
            <path d="M89.2,60.3 C89.5,60.3 89.9,60.2 90.1,60 C90.3,59.8 90.4,59.5 90.4,59.1 C90.4,58.7 90.5,58.2 90.5,57.8 L90.5,47.9 C90.5,47.7 90.5,47.4 90.5,47.1 C90.5,46.8 90.5,46.6 90.6,46.3 L89.8,46.3 L89,46.3 L89,45.2 C89.5,45.2 90.1,45.2 90.6,45.1 C90.9,45.1 91.2,45 91.5,44.9 C91.7,44.8 91.8,44.7 92,44.6 L92.8,44.6 L92.8,58.5 C92.8,58.8 92.8,59 92.8,59.3 C92.8,59.6 92.8,59.8 92.7,60.1 L93.4,60.1 L94.1,60.1 L94.1,61.3 L89.2,61.3 L89.2,60.3 Z" id="Path"></path>
            <path d="M99.3,61.5 C98.9,61.5 98.6,61.5 98.2,61.4 C97.8,61.3 97.5,61.1 97.2,60.8 C96.9,60.5 96.6,60 96.5,59.6 C96.3,58.9 96.2,58.2 96.2,57.4 L96.3,51.4 L94.7,51.4 L94.7,50.2 C95.1,50.2 95.6,50 95.9,49.8 C96.3,49.5 96.7,49.1 97,48.7 C97.3,48.2 97.5,47.7 97.6,47.2 L98.6,47.2 L98.6,50.3 L102,50.3 L102,51.5 L98.6,51.5 L98.6,57.4 C98.6,57.9 98.6,58.4 98.8,58.9 C98.9,59.3 99,59.6 99.3,59.9 C99.6,60.1 99.9,60.3 100.2,60.2 C100.6,60.2 100.9,60.1 101.2,59.9 C101.6,59.6 101.9,59.3 102.2,58.9 L103,59.6 C102.7,60 102.4,60.5 102,60.8 C101.7,61.1 101.4,61.3 101,61.5 C100.7,61.6 100.4,61.7 100.1,61.8 C99.8,61.5 99.6,61.5 99.3,61.5 Z" id="Path"></path>
            <path d="M110.1,60.3 C110.4,60.3 110.8,60.2 111,60 C111.2,59.8 111.3,59.5 111.3,59.1 C111.3,58.7 111.3,58.3 111.3,57.8 L111.3,54.7 C111.4,53.8 111.2,52.9 110.8,52.1 C110.4,51.5 109.8,51.2 109.1,51.3 C108.6,51.3 108.1,51.4 107.7,51.6 C107.3,51.8 106.9,52.1 106.5,52.5 L106.5,58.5 C106.5,58.8 106.5,59 106.5,59.3 C106.5,59.6 106.5,59.8 106.4,60.1 L107.1,60.1 L107.8,60.1 L107.8,61.3 L102.9,61.3 L102.9,60.4 C103.2,60.4 103.6,60.3 103.8,60.1 C104,59.8 104.1,59.6 104.1,59.2 C104.1,58.8 104.2,58.3 104.2,57.9 L104.2,47.9 C104.2,47.7 104.2,47.4 104.2,47.1 C104.2,46.8 104.2,46.6 104.3,46.3 L103.5,46.3 L102.7,46.3 L102.7,45.2 C103.2,45.2 103.8,45.2 104.3,45.1 C104.6,45.1 104.9,45 105.2,44.9 C105.4,44.8 105.5,44.7 105.7,44.6 L106.5,44.6 L106.5,51.3 C106.8,51 107.2,50.8 107.6,50.6 C108,50.4 108.4,50.2 108.8,50.1 C109.2,50 109.6,49.9 110,49.9 C111.1,49.8 112.1,50.2 112.8,51.1 C113.5,52.2 113.8,53.5 113.7,54.8 L113.7,58.6 C113.7,58.9 113.7,59.1 113.7,59.4 C113.7,59.7 113.7,59.9 113.6,60.2 L114.3,60.2 L115,60.2 L115,61.4 L110,61.4 L110.1,60.3 Z" id="Path"></path>
            <path d="M121.2,60.2 C121.6,60.2 121.9,60.1 122.3,59.9 C122.5,59.7 122.7,59.4 122.7,59.1 C122.8,58.7 122.8,58.2 122.8,57.8 L122.8,48.6 C122.8,48.3 122.8,48 122.8,47.7 C122.8,47.4 122.8,47.1 122.9,46.9 L122,46.9 L121.2,46.9 L121.2,45.8 L123.8,45.8 L126.5,45.8 C127.7,45.8 128.9,45.9 130,46.3 C130.9,46.6 131.6,47.1 132.2,47.8 C132.7,48.5 133,49.4 133,50.3 C133,50.9 132.9,51.5 132.7,52.1 C132.5,52.7 132.1,53.3 131.6,53.8 C131,54.4 130.2,54.8 129.4,55 C128.3,55.3 127.2,55.5 126,55.5 C125.8,55.5 125.7,55.5 125.5,55.5 C125.3,55.5 125.1,55.5 124.9,55.5 L124.9,58.3 C124.9,58.7 124.9,59.1 124.9,59.4 C124.9,59.7 124.9,59.9 124.8,60.2 L125.5,60.2 L126.2,60.2 L126.8,60.2 L126.8,61.4 L121,61.4 L121,60.2 L121.2,60.2 Z M125.1,54.3 L125.7,54.3 L126.3,54.3 C127.1,54.3 127.8,54.2 128.5,53.8 C129.1,53.5 129.6,53 130,52.5 C130.4,51.9 130.6,51.1 130.5,50.4 C130.5,49.8 130.4,49.2 130.2,48.6 C130,48.2 129.7,47.8 129.3,47.5 C128.9,47.2 128.5,47 128,46.9 C127.5,46.8 127,46.7 126.5,46.7 C126.1,46.7 125.8,46.8 125.5,47 C125.3,47.2 125.1,47.5 125.1,47.8 C125,48.2 125,48.7 125,49.1 L125.1,54.3 Z" id="Shape"></path>
            <path d="M133.6,60.3 C133.9,60.3 134.3,60.2 134.5,60 C134.7,59.8 134.8,59.5 134.8,59.1 C134.8,58.7 134.9,58.3 134.9,57.8 L134.9,47.9 C134.9,47.7 134.9,47.4 134.9,47.1 C134.9,46.8 134.9,46.6 135,46.3 L134.2,46.3 L133.4,46.3 L133.4,45.2 C133.9,45.2 134.4,45.2 135,45.1 C135.3,45.1 135.6,45 135.9,44.9 C136.1,44.8 136.2,44.7 136.4,44.6 L137.2,44.6 L137.2,58.5 C137.2,58.8 137.2,59 137.2,59.3 C137.2,59.6 137.2,59.8 137.1,60.1 L137.8,60.1 L138.5,60.1 L138.5,61.3 L133.6,61.3 L133.6,60.3 Z" id="Path"></path>
            <path d="M146,61.2 C146,61 145.9,60.8 145.9,60.6 C145.9,60.4 145.9,60.3 145.8,60 C145.3,60.5 144.8,60.9 144.2,61.1 C143.6,61.3 143,61.4 142.4,61.4 C141.5,61.5 140.7,61.2 140,60.6 C139.5,60.1 139.2,59.4 139.2,58.6 C139.2,58 139.4,57.3 139.8,56.8 C140.2,56.3 140.8,55.9 141.4,55.6 C142.1,55.3 142.8,55 143.5,54.9 C144.2,54.8 145,54.7 145.7,54.7 L145.7,53.5 C145.7,53.1 145.7,52.6 145.6,52.2 C145.5,51.8 145.3,51.5 145.1,51.2 C144.7,50.9 144.3,50.8 143.8,50.8 C143.4,50.8 143,50.9 142.7,51 C142.3,51.1 142,51.4 141.8,51.8 C141.9,51.9 142,52 142,52.2 C142,52.3 142.1,52.5 142.1,52.6 C142.1,52.9 142,53.1 141.8,53.3 C141.6,53.6 141.2,53.7 140.9,53.7 C140.6,53.7 140.3,53.6 140.1,53.3 C139.9,53.1 139.8,52.8 139.8,52.5 C139.8,52 140,51.5 140.4,51.1 C140.8,50.6 141.4,50.3 142,50.1 C142.7,49.9 143.5,49.7 144.3,49.8 C145.3,49.7 146.4,50.1 147.1,50.8 C147.8,51.7 148.1,52.8 148,53.9 L148,55.5 C148,56 148,56.5 148,56.9 C148,57.3 148,57.9 148,58.4 C148,58.6 148,58.9 148,59.2 C148,59.5 148,59.8 147.9,60.1 L148.7,60.1 L149.4,60.1 L149.4,61.3 L146,61.2 Z M145.8,55.9 C145.3,55.9 144.8,56 144.4,56.1 C143.9,56.2 143.5,56.3 143.1,56.6 C142.7,56.8 142.4,57.1 142.1,57.4 C141.9,57.7 141.7,58.2 141.7,58.6 C141.7,59 141.9,59.4 142.2,59.7 C142.5,59.9 142.9,60.1 143.3,60 C143.8,60 144.2,59.9 144.7,59.7 C145.1,59.5 145.5,59.2 145.9,58.9 C145.9,58.7 145.9,58.6 145.9,58.4 L145.9,57.9 C145.9,57.8 145.9,57.5 145.9,57.2 C145.9,56.9 145.8,56.3 145.8,55.9 Z" id="Shape"></path>
            <path d="M150.2,61.2 L150.2,60.3 C150.5,60.3 150.9,60.2 151.1,60 C151.3,59.8 151.4,59.5 151.4,59.1 C151.4,58.7 151.5,58.3 151.5,57.8 L151.5,53.2 C151.5,53 151.5,52.7 151.5,52.4 C151.5,52.1 151.5,51.9 151.6,51.6 L150.8,51.6 L150,51.6 L150,50.5 C150.5,50.5 151,50.5 151.6,50.4 C151.9,50.4 152.2,50.3 152.5,50.2 C152.7,50.1 152.8,50 152.9,49.9 L153.7,49.9 C153.7,50 153.7,50.2 153.7,50.3 C153.7,50.4 153.7,50.5 153.7,50.7 C153.7,50.9 153.7,51 153.7,51.2 C154,50.9 154.4,50.7 154.8,50.5 C155.2,50.3 155.6,50.1 156,50 C156.4,49.9 156.8,49.8 157.2,49.8 C158.3,49.7 159.3,50.1 160,51 C160.7,52.1 161,53.4 160.9,54.7 L160.9,58.5 C160.9,58.8 160.9,59 160.9,59.3 C160.9,59.6 160.9,59.8 160.8,60.1 L161.5,60.1 L162.2,60.1 L162.2,61.3 L157.3,61.3 L157.3,60.4 C157.6,60.4 158,60.3 158.2,60.1 C158.4,59.9 158.5,59.6 158.5,59.2 C158.5,58.8 158.6,58.4 158.6,57.9 L158.6,54.7 C158.6,53.8 158.5,52.9 158,52.1 C157.6,51.5 157,51.2 156.3,51.2 C155.8,51.2 155.3,51.3 154.9,51.5 C154.5,51.7 154.1,52 153.8,52.4 L153.8,58.4 C153.8,58.7 153.8,58.9 153.8,59.2 C153.8,59.5 153.8,59.7 153.7,60 L154.4,60 L155.1,60 L155.1,61.2 L150.2,61.2 Z" id="Path"></path>
        </g>
    </g>
</svg>